<svg xmlns="http://www.w3.org/2000/svg" viewBox="0 0 1200 900" width="1200" height="900"><defs><linearGradient id="sky" x1="0" y1="0" x2="0" y2="1"><stop offset="0" stop-color="#8FB3D6"/><stop offset="1" stop-color="#F2D8AE"/></linearGradient></defs><rect width="1200" height="900" fill="url(#sky)"/><path d="M0 470 Q260 360 520 420 T1200 380 V900 H0Z" fill="#c7b494"/><path d="M0 540 Q300 470 640 520 T1200 500 V900 H0Z" fill="#B9A27A"/><rect y="610" width="1200" height="290" fill="#9DB27A"/><rect x="0" y="600" width="1200" height="70" fill="#E3D3B3"/><rect x="3" y="603" width="194" height="29" rx="4" fill="#d9caab"/><rect x="203" y="603" width="144" height="29" rx="4" fill="#e4d5b7"/><rect x="353" y="603" width="194" height="29" rx="4" fill="#e3d3b4"/><rect x="553" y="603" width="144" height="29" rx="4" fill="#d6c7a9"/><rect x="703" y="603" width="144" height="29" rx="4" fill="#dbcbac"/><rect x="853" y="603" width="114" height="29" rx="4" fill="#e3d4b4"/><rect x="973" y="603" width="164" height="29" rx="4" fill="#e3d3b3"/><rect x="1143" y="603" width="114" height="29" rx="4" fill="#ddceae"/><rect x="-57" y="638" width="164" height="29" rx="4" fill="#e3d4b5"/><rect x="113" y="638" width="164" height="29" rx="4" fill="#dfcfb0"/><rect x="283" y="638" width="194" height="29" rx="4" fill="#dcccad"/><rect x="483" y="638" width="144" height="29" rx="4" fill="#dfcfb0"/><rect x="633" y="638" width="164" height="29" rx="4" fill="#e1d1b1"/><rect x="803" y="638" width="144" height="29" rx="4" fill="#d4c5a7"/><rect x="953" y="638" width="144" height="29" rx="4" fill="#deceaf"/><rect x="1103" y="638" width="144" height="29" rx="4" fill="#d8c9aa"/><rect x="700" y="250" width="500" height="420" fill="#e4d5b6"/><rect x="760" y="330" width="120" height="160" fill="#9d8c71"/><rect x="960" y="330" width="120" height="160" fill="#9d8c71"/><rect x="690" y="230" width="520" height="28" fill="#8A5A3B"/><rect x="700" y="214" width="16" height="20" fill="#6e482f"/><rect x="760" y="214" width="16" height="20" fill="#6e482f"/><rect x="820" y="214" width="16" height="20" fill="#6e482f"/><rect x="880" y="214" width="16" height="20" fill="#6e482f"/><rect x="940" y="214" width="16" height="20" fill="#6e482f"/><rect x="1000" y="214" width="16" height="20" fill="#6e482f"/><rect x="1060" y="214" width="16" height="20" fill="#6e482f"/><rect x="1120" y="214" width="16" height="20" fill="#6e482f"/><rect x="1180" y="214" width="16" height="20" fill="#6e482f"/><path d="M330 760C320 680 350 620 330 540" stroke="#6E5A44" stroke-width="30" fill="none" stroke-linecap="round"/><ellipse cx="345" cy="544" rx="69" ry="31" fill="#6d8568"/><ellipse cx="298" cy="436" rx="67" ry="41" fill="#6d8568"/><ellipse cx="264" cy="535" rx="60" ry="47" fill="#6d8568"/><ellipse cx="263" cy="439" rx="73" ry="44" fill="#6d8568"/><ellipse cx="328" cy="498" rx="80" ry="35" fill="#4E6B48"/><ellipse cx="410" cy="523" rx="48" ry="32" fill="#466040"/><ellipse cx="383" cy="534" rx="67" ry="36" fill="#6d8568"/><ellipse cx="278" cy="434" rx="70" ry="43" fill="#4E6B48"/><ellipse cx="350" cy="511" rx="80" ry="30" fill="#6d8568"/><ellipse cx="274" cy="428" rx="55" ry="45" fill="#4E6B48"/><ellipse cx="329" cy="459" rx="62" ry="36" fill="#4E6B48"/><ellipse cx="425" cy="455" rx="52" ry="44" fill="#4E6B48"/><ellipse cx="242" cy="510" rx="70" ry="41" fill="#466040"/><ellipse cx="253" cy="498" rx="79" ry="35" fill="#4E6B48"/><ellipse cx="257" cy="448" rx="73" ry="40" fill="#6d8568"/><ellipse cx="276" cy="531" rx="49" ry="37" fill="#4E6B48"/><rect x="520" y="700" width="260" height="22" rx="8" fill="#8A5A3B"/><rect x="540" y="720" width="14" height="80" fill="#6e482f"/><rect x="746" y="720" width="14" height="80" fill="#6e482f"/><rect x="474" y="690" width="52" height="16" rx="6" fill="#B5654A"/><rect x="496" y="706" width="8" height="90" fill="#6e482f"/><rect x="774" y="690" width="52" height="16" rx="6" fill="#B5654A"/><rect x="796" y="706" width="8" height="90" fill="#6e482f"/></svg>