<svg xmlns="http://www.w3.org/2000/svg" viewBox="0 0 1200 900" width="1200" height="900"><defs><radialGradient id="glow" cx="0.5" cy="0.5" r="0.5"><stop offset="0" stop-color="#FFD27A" stop-opacity="0.75"/><stop offset="1" stop-color="#FFD27A" stop-opacity="0"/></radialGradient><radialGradient id="room" cx="0.5" cy="0.35" r="0.75"><stop offset="0" stop-color="#f2f5f7" stop-opacity="1"/><stop offset="1" stop-color="#EEF2F5" stop-opacity="1"/></radialGradient></defs><rect width="1200" height="900" fill="url(#room)"/><rect x="420" y="90" width="360" height="250" rx="6" fill="#bec1c4"/><rect x="436" y="106" width="328" height="218" fill="#dce2e5"/><path d="M436 270 Q560 220 660 250 T764 240 V324 H436Z" fill="#969b7c"/><path d="M600 0V150" stroke="#8e9193" stroke-width="4"/><rect x="220" y="370" width="140" height="210" rx="18" fill="#714d32"/><rect x="840" y="370" width="140" height="210" rx="18" fill="#714d32"/><rect x="150" y="520" width="900" height="300" fill="#5e402a"/><path d="M120 500H1080L1100 760H100Z" fill="#FBFAF6"/><path d="M100 760H1100V790H100Z" fill="#EDEAE2"/><path d="M140 760l20 26 20-26" fill="none" stroke="#DDD8CB" stroke-width="3"/><path d="M210 760l20 26 20-26" fill="none" stroke="#DDD8CB" stroke-width="3"/><path d="M280 760l20 26 20-26" fill="none" stroke="#DDD8CB" stroke-width="3"/><path d="M350 760l20 26 20-26" fill="none" stroke="#DDD8CB" stroke-width="3"/><path d="M420 760l20 26 20-26" fill="none" stroke="#DDD8CB" stroke-width="3"/><path d="M490 760l20 26 20-26" fill="none" stroke="#DDD8CB" stroke-width="3"/><path d="M560 760l20 26 20-26" fill="none" stroke="#DDD8CB" stroke-width="3"/><path d="M630 760l20 26 20-26" fill="none" stroke="#DDD8CB" stroke-width="3"/><path d="M700 760l20 26 20-26" fill="none" stroke="#DDD8CB" stroke-width="3"/><path d="M770 760l20 26 20-26" fill="none" stroke="#DDD8CB" stroke-width="3"/><path d="M840 760l20 26 20-26" fill="none" stroke="#DDD8CB" stroke-width="3"/><path d="M910 760l20 26 20-26" fill="none" stroke="#DDD8CB" stroke-width="3"/><path d="M980 760l20 26 20-26" fill="none" stroke="#DDD8CB" stroke-width="3"/><path d="M1050 760l20 26 20-26" fill="none" stroke="#DDD8CB" stroke-width="3"/><ellipse cx="360" cy="560" rx="38" ry="10" fill="#967937"/><path d="M330 558 Q360 520 350 470 H370 Q360 520 390 558Z" fill="#C9A24A"/><rect x="344" y="456" width="32" height="18" rx="4" fill="#d1af65"/><rect x="351" y="330" width="18" height="128" rx="3" fill="#FFFDF7"/><ellipse cx="360" cy="319.1" rx="39.099999999999994" ry="46.0" fill="url(#glow)"/><path d="M360 286.9 C373.8 305.3 372.65 323.7 360 326 C347.35 323.7 346.2 305.3 360 286.9Z" fill="#F6B347"/><path d="M360 303.0 C365.75 313.35 365.75 322.55 360 324.85 C354.25 322.55 354.25 313.35 360 303.0Z" fill="#FFF1C9"/><ellipse cx="450" cy="560" rx="38" ry="10" fill="#967937"/><path d="M420 558 Q450 520 440 470 H460 Q450 520 480 558Z" fill="#C9A24A"/><rect x="434" y="456" width="32" height="18" rx="4" fill="#d1af65"/><rect x="441" y="330" width="18" height="128" rx="3" fill="#FFFDF7"/><ellipse cx="450" cy="319.1" rx="39.099999999999994" ry="46.0" fill="url(#glow)"/><path d="M450 286.9 C463.8 305.3 462.65 323.7 450 326 C437.35 323.7 436.2 305.3 450 286.9Z" fill="#F6B347"/><path d="M450 303.0 C455.75 313.35 455.75 322.55 450 324.85 C444.25 322.55 444.25 313.35 450 303.0Z" fill="#FFF1C9"/><path d="M560 560 Q560 470 690 470 H770 Q860 470 860 560Z" fill="#3D7DC2"/><path d="M560 540 H860" stroke="#E9C46A" stroke-width="16"/><circle cx="600" cy="508" r="8" fill="none" stroke="#E9C46A" stroke-width="4"/><circle cx="637" cy="508" r="8" fill="none" stroke="#E9C46A" stroke-width="4"/><circle cx="674" cy="508" r="8" fill="none" stroke="#E9C46A" stroke-width="4"/><circle cx="711" cy="508" r="8" fill="none" stroke="#E9C46A" stroke-width="4"/><circle cx="748" cy="508" r="8" fill="none" stroke="#E9C46A" stroke-width="4"/><circle cx="785" cy="508" r="8" fill="none" stroke="#E9C46A" stroke-width="4"/><circle cx="822" cy="508" r="8" fill="none" stroke="#E9C46A" stroke-width="4"/><path d="M930 470 H990 Q990 520 960 530 V560 H985 V572 H935 V560 H960" fill="none" stroke="#C9CDD2" stroke-width="10" stroke-linejoin="round"/><path d="M935 478 H985 Q983 512 960 520 Q937 512 935 478Z" fill="#8E2B3C"/></svg>