<svg xmlns="http://www.w3.org/2000/svg" viewBox="0 0 1200 900" width="1200" height="900"><defs><radialGradient id="lamp" cx="0.5" cy="0.5" r="0.5"><stop offset="0" stop-color="#FFE2A8" stop-opacity="0.8"/><stop offset="1" stop-color="#FFE2A8" stop-opacity="0"/></radialGradient></defs><rect width="1200" height="900" fill="#EEF2F5"/><rect y="700" width="1200" height="200" fill="#C8B79A"/><rect x="760" y="120" width="280" height="300" rx="6" fill="#bec1c4"/><rect x="776" y="136" width="248" height="268" fill="#E8EEF2"/><path d="M776 330 Q860 290 940 310 T1024 300 V404 H776Z" fill="#9EA483"/><path d="M740 100H830C820 260 840 380 820 460H740Z" fill="#E9C46A"/><rect x="200" y="300" width="560" height="300" rx="40" fill="#775135"/><rect x="170" y="520" width="620" height="230" rx="30" fill="#FBFAF6"/><path d="M170 610H790V720Q790 750 760 750H200Q170 750 170 720Z" fill="#3D7DC2"/><path d="M170 610H790" stroke="#30649b" stroke-width="10"/><rect x="230" y="450" width="230" height="100" rx="36" fill="#FFFFFF"/><rect x="500" y="450" width="230" height="100" rx="36" fill="#FFFFFF"/><rect x="250" y="160" width="160" height="110" rx="4" fill="#cacdd0"/><rect x="262" y="172" width="136" height="86" fill="#efd596"/><path d="M262 258 L320 205 L360 240 L398 215 V258Z" fill="#8e9375"/><circle cx="940" cy="520" r="170" fill="url(#lamp)"/><rect x="870" y="600" width="150" height="150" rx="10" fill="#7E5638"/><rect x="938" y="520" width="14" height="80" fill="#b49142"/><path d="M890 520 L920 440 H970 L1000 520Z" fill="#f2dead"/></svg>